<?xml version="1.0" encoding="UTF-8"?>
<!DOCTYPE svg PUBLIC "-//W3C//DTD SVG 1.1//EN" "http://www.w3.org/Graphics/SVG/1.1/DTD/svg11.dtd">
<svg xmlns="http://www.w3.org/2000/svg" version="1.1" width="512px" height="512px" style="shape-rendering:geometricPrecision; text-rendering:geometricPrecision; image-rendering:optimizeQuality; fill-rule:evenodd; clip-rule:evenodd" xmlns:xlink="http://www.w3.org/1999/xlink">
<g><path style="opacity:0.962" fill="#000000" d="M 232.5,-0.5 C 247.833,-0.5 263.167,-0.5 278.5,-0.5C 369.801,10.883 437.967,56.5496 483,136.5C 498.419,166.864 507.919,198.864 511.5,232.5C 511.5,247.833 511.5,263.167 511.5,278.5C 498.676,377.341 447.342,448.174 357.5,491C 331.755,501.936 305.088,508.769 277.5,511.5C 262.833,511.5 248.167,511.5 233.5,511.5C 140.782,500.408 71.9487,454.075 27,372.5C 12.2182,342.687 3.05154,311.354 -0.5,278.5C -0.5,263.167 -0.5,247.833 -0.5,232.5C 10.8826,141.2 56.5493,73.0337 136.5,28C 166.898,12.6966 198.898,3.19658 232.5,-0.5 Z M 254.5,29.5 C 331.486,31.7394 392.986,63.4061 439,124.5C 484.53,192.412 492.863,264.746 464,341.5C 432.312,412.849 378.478,457.683 302.5,476C 218.529,490.897 147.029,467.731 88,406.5C 30.8805,338.562 16.2138,262.228 44,177.5C 72.7271,105.107 124.56,58.2735 199.5,37C 217.751,32.762 236.084,30.262 254.5,29.5 Z M 208.5,96.5 C 209.832,106.812 210.499,117.478 210.5,128.5C 210.167,139.167 209.833,149.833 209.5,160.5C 187.5,171.167 171.167,187.5 160.5,209.5C 139.167,210.833 117.833,210.833 96.5,209.5C 115.15,153.184 152.483,115.517 208.5,96.5 Z M 300.5,96.5 C 357.72,114.72 395.72,152.387 414.5,209.5C 393.167,210.833 371.833,210.833 350.5,209.5C 339.833,187.5 323.5,171.167 301.5,160.5C 300.5,139.177 300.167,117.844 300.5,96.5 Z M 250.5,241.5 C 264.652,240.151 270.819,246.485 269,260.5C 263.135,270.246 255.301,272.08 245.5,266C 238.906,256.014 240.573,247.848 250.5,241.5 Z M 96.5,300.5 C 117.844,300.167 139.177,300.5 160.5,301.5C 171.167,323.5 187.5,339.833 209.5,350.5C 210.833,371.833 210.833,393.167 209.5,414.5C 152.387,395.72 114.72,357.72 96.5,300.5 Z M 350.5,300.5 C 371.844,300.167 393.177,300.5 414.5,301.5C 395.833,358.167 358.167,395.833 301.5,414.5C 300.167,393.167 300.167,371.833 301.5,350.5C 323.934,339.733 340.268,323.066 350.5,300.5 Z"/></g>
<g><path style="opacity:0.974" fill="#000000" d="M 238.5,58.5 C 240.494,99.4865 241.161,140.82 240.5,182.5C 209.833,190.5 190.5,209.833 182.5,240.5C 141.161,240.833 99.828,240.5 58.5,239.5C 70.638,153.337 117.638,95.8369 199.5,67C 212.563,63.8232 225.563,60.9898 238.5,58.5 Z M 208.5,96.5 C 152.483,115.517 115.15,153.184 96.5,209.5C 117.833,210.833 139.167,210.833 160.5,209.5C 171.167,187.5 187.5,171.167 209.5,160.5C 209.833,149.833 210.167,139.167 210.5,128.5C 210.499,117.478 209.832,106.812 208.5,96.5 Z"/></g>
<g><path style="opacity:0.974" fill="#000000" d="M 270.5,58.5 C 357.069,70.3418 414.902,117.342 444,199.5C 447.371,212.731 450.205,226.065 452.5,239.5C 411.172,240.5 369.839,240.833 328.5,240.5C 320.5,209.833 301.167,190.5 270.5,182.5C 270.5,141.167 270.5,99.8333 270.5,58.5 Z M 300.5,96.5 C 300.167,117.844 300.5,139.177 301.5,160.5C 323.5,171.167 339.833,187.5 350.5,209.5C 371.833,210.833 393.167,210.833 414.5,209.5C 395.72,152.387 357.72,114.72 300.5,96.5 Z"/></g>
<g><path style="opacity:0.962" fill="#000000" d="M 245.5,210.5 C 268.793,207.396 285.959,216.062 297,236.5C 305.029,257.545 300.862,275.712 284.5,291C 267.989,302.094 250.656,303.427 232.5,295C 209.914,278.83 204.414,257.997 216,232.5C 223.172,221.481 233.005,214.148 245.5,210.5 Z M 250.5,241.5 C 240.573,247.848 238.906,256.014 245.5,266C 255.301,272.08 263.135,270.246 269,260.5C 270.819,246.485 264.652,240.151 250.5,241.5 Z"/></g>
<g><path style="opacity:0.974" fill="#000000" d="M 58.5,270.5 C 99.8333,270.5 141.167,270.5 182.5,270.5C 190.5,301.167 209.833,320.5 240.5,328.5C 240.833,369.839 240.5,411.172 239.5,452.5C 153.334,440.361 95.8341,393.361 67,311.5C 63.5201,297.95 60.6868,284.283 58.5,270.5 Z M 96.5,300.5 C 114.72,357.72 152.387,395.72 209.5,414.5C 210.833,393.167 210.833,371.833 209.5,350.5C 187.5,339.833 171.167,323.5 160.5,301.5C 139.177,300.5 117.844,300.167 96.5,300.5 Z"/></g>
<g><path style="opacity:0.974" fill="#000000" d="M 328.5,270.5 C 369.839,270.167 411.172,270.5 452.5,271.5C 440.362,357.663 393.362,415.163 311.5,444C 298.269,447.371 284.935,450.205 271.5,452.5C 270.5,411.172 270.167,369.839 270.5,328.5C 301.167,320.5 320.5,301.167 328.5,270.5 Z M 350.5,300.5 C 340.268,323.066 323.934,339.733 301.5,350.5C 300.167,371.833 300.167,393.167 301.5,414.5C 358.167,395.833 395.833,358.167 414.5,301.5C 393.177,300.5 371.844,300.167 350.5,300.5 Z"/></g>
</svg>
