<?xml version="1.0" encoding="UTF-8"?>
<!DOCTYPE svg PUBLIC "-//W3C//DTD SVG 1.1//EN" "http://www.w3.org/Graphics/SVG/1.1/DTD/svg11.dtd">
<svg xmlns="http://www.w3.org/2000/svg" version="1.1" width="512px" height="512px" style="shape-rendering:geometricPrecision; text-rendering:geometricPrecision; image-rendering:optimizeQuality; fill-rule:evenodd; clip-rule:evenodd" xmlns:xlink="http://www.w3.org/1999/xlink">
<g><path style="opacity:0.985" fill="#000000" d="M 280.5,55.5 C 311.835,55.3334 343.168,55.5 374.5,56C 388.482,61.4572 393.982,71.6239 391,86.5C 387.204,97.8018 379.371,103.468 367.5,103.5C 367.5,114.167 367.5,124.833 367.5,135.5C 379.371,135.532 387.204,141.198 391,152.5C 391.499,157.489 391.666,162.489 391.5,167.5C 405.837,167.333 420.171,167.5 434.5,168C 458.64,173.473 473.473,188.307 479,212.5C 479.667,251.833 479.667,291.167 479,330.5C 473.5,354.667 458.667,369.5 434.5,375C 425.506,375.5 416.506,375.666 407.5,375.5C 407.5,380.833 407.5,386.167 407.5,391.5C 425.836,391.333 444.17,391.5 462.5,392C 470.667,394.833 476.167,400.333 479,408.5C 479.667,418.5 479.667,428.5 479,438.5C 476.649,445.519 472.149,450.686 465.5,454C 395.556,455.162 325.556,455.662 255.5,455.5C 186.5,455.333 117.5,455.167 48.5,455C 41.4808,452.649 36.3141,448.149 33,441.5C 31.4025,430.573 31.0692,419.573 32,408.5C 35.7961,397.198 43.6294,391.532 55.5,391.5C 52.7792,377.792 57.4458,367.625 69.5,361C 72.7256,359.801 76.059,359.301 79.5,359.5C 79.3334,327.832 79.5,296.165 80,264.5C 82.8333,256.333 88.3333,250.833 96.5,248C 112.163,247.5 127.83,247.333 143.5,247.5C 143.532,235.629 149.198,227.796 160.5,224C 165.489,223.501 170.489,223.334 175.5,223.5C 177.042,194.121 192.042,175.621 220.5,168C 234.829,167.5 249.163,167.333 263.5,167.5C 260.779,153.792 265.446,143.625 277.5,137C 280.726,135.801 284.059,135.301 287.5,135.5C 287.5,124.833 287.5,114.167 287.5,103.5C 268.975,101.457 261.142,91.1238 264,72.5C 267.019,64.3156 272.519,58.649 280.5,55.5 Z M 287.5,71.5 C 314.169,71.3334 340.835,71.5 367.5,72C 374.347,73.8656 376.18,78.0323 373,84.5C 371.352,85.717 369.519,86.5503 367.5,87C 340.833,87.6667 314.167,87.6667 287.5,87C 280.653,85.1344 278.82,80.9677 282,74.5C 283.876,73.3913 285.709,72.3913 287.5,71.5 Z M 287.5,151.5 C 314.169,151.333 340.835,151.5 367.5,152C 372,152.5 374.5,155 375,159.5C 375.497,162.146 375.664,164.813 375.5,167.5C 343.5,167.5 311.5,167.5 279.5,167.5C 279.001,162.636 280.001,158.136 282.5,154C 284.315,153.243 285.981,152.41 287.5,151.5 Z M 231.5,183.5 C 295.501,183.333 359.501,183.5 423.5,184C 447.333,186.5 460.5,199.667 463,223.5C 463.667,255.5 463.667,287.5 463,319.5C 460.5,343.333 447.333,356.5 423.5,359C 359.5,359.667 295.5,359.667 231.5,359C 211.187,357.599 198.353,347.099 193,327.5C 191.389,292.86 191.056,258.193 192,223.5C 194.678,199.656 207.844,186.323 231.5,183.5 Z M 167.5,239.5 C 170.167,239.5 172.833,239.5 175.5,239.5C 175.5,260.833 175.5,282.167 175.5,303.5C 170.92,303.887 166.586,303.053 162.5,301C 161.283,299.352 160.45,297.519 160,295.5C 159.333,279.5 159.333,263.5 160,247.5C 160.68,242.989 163.18,240.323 167.5,239.5 Z M 325.5,248.5 C 326.873,248.343 328.207,248.51 329.5,249C 340.8,260.213 344.3,273.38 340,288.5C 331.667,296.5 323.333,296.5 315,288.5C 312.017,282.017 311.684,275.351 314,268.5C 316.398,260.953 320.231,254.286 325.5,248.5 Z M 135.5,295.5 C 138.167,295.5 140.833,295.5 143.5,295.5C 143.532,307.371 149.198,315.204 160.5,319C 165.489,319.499 170.489,319.666 175.5,319.5C 177.072,348.904 192.072,367.404 220.5,375C 229.494,375.5 238.494,375.666 247.5,375.5C 247.5,380.833 247.5,386.167 247.5,391.5C 215.5,391.5 183.5,391.5 151.5,391.5C 154.221,377.792 149.554,367.625 137.5,361C 134.274,359.801 130.941,359.301 127.5,359.5C 127.333,340.83 127.5,322.164 128,303.5C 128.68,298.989 131.18,296.323 135.5,295.5 Z M 79.5,375.5 C 95.5035,375.333 111.503,375.5 127.5,376C 132,376.5 134.5,379 135,383.5C 135.497,386.146 135.664,388.813 135.5,391.5C 114.167,391.5 92.8333,391.5 71.5,391.5C 71.0011,386.636 72.0011,382.136 74.5,378C 76.3146,377.243 77.9812,376.41 79.5,375.5 Z M 295.5,375.5 C 316.833,375.5 338.167,375.5 359.5,375.5C 359.5,380.833 359.5,386.167 359.5,391.5C 338.167,391.5 316.833,391.5 295.5,391.5C 295.5,386.167 295.5,380.833 295.5,375.5 Z M 55.5,407.5 C 188.834,407.333 322.167,407.5 455.5,408C 460,408.5 462.5,411 463,415.5C 464.113,422.715 463.446,429.715 461,436.5C 459.352,437.717 457.519,438.55 455.5,439C 322.167,439.667 188.833,439.667 55.5,439C 51,438.5 48.5,436 48,431.5C 47.1304,425.083 47.4638,418.749 49,412.5C 50.5631,409.977 52.7298,408.31 55.5,407.5 Z"/></g>
<g><path style="opacity:0.979" fill="#000000" d="M 315.5,199.5 C 352.533,196.258 379.033,211.258 395,244.5C 406.523,280.929 397.023,310.429 366.5,333C 330.717,351.526 298.884,346.359 271,317.5C 254.603,295.169 250.937,270.836 260,244.5C 270.813,219.864 289.313,204.864 315.5,199.5 Z M 325.5,248.5 C 320.231,254.286 316.398,260.953 314,268.5C 311.684,275.351 312.017,282.017 315,288.5C 323.333,296.5 331.667,296.5 340,288.5C 344.3,273.38 340.8,260.213 329.5,249C 328.207,248.51 326.873,248.343 325.5,248.5 Z"/></g>
</svg>
